<svg width="89" height="90" viewBox="0 0 89 90" fill="none" xmlns="http://www.w3.org/2000/svg">
<g clip-path="url(#clip0_922_1052)">
<path d="M63.3207 45.4016C65.2194 45.4961 68.0674 45.6851 69.8711 44.9764C72.4343 43.9843 72.3394 39.6851 69.3015 39.4488C67.6402 39.3071 65.789 39.7323 64.2226 40.2047C63.7479 40.3465 63.3207 40.5354 62.8935 40.7244C62.1815 41.2913 61.5645 41.9055 60.8999 42.5669C60.6626 42.8032 60.7101 43.3701 60.6626 43.7953C61.4695 44.5512 62.3239 45.0236 63.2258 45.3543C63.2733 45.4488 63.2733 45.4016 63.3207 45.4016Z" fill="black"/>
<path d="M55.6783 37.181C54.5391 37.4645 53.4474 37.6535 52.2607 37.8425C47.3242 38.7873 42.4351 39.7795 37.5461 40.4881C35.6474 40.7716 34.3658 40.9606 33.4639 41.244C32.8469 42.3306 32.1349 43.37 31.3754 44.3621C31.2805 45.0708 31.233 45.9684 31.1855 47.1023C30.6634 56.9763 34.2709 64.8188 42.8149 70.1574C44.3813 71.1495 44.9509 72.2834 44.9509 73.9842C44.9034 76.4881 44.9509 78.9921 44.9509 81.5432C45.6154 81.685 46.185 81.8267 46.8021 81.9684C46.8021 81.8267 46.8021 81.685 46.8021 81.5905C46.7071 80.8818 46.6122 80.3621 46.6122 79.8425C46.4223 72.7086 46.2799 65.5275 46.1375 58.3464C46.0901 55.2755 46.2325 52.2047 43.5743 49.9369C43.0047 49.4645 42.7199 48.6141 42.3877 47.9054C41.3434 45.5432 41.7706 44.4566 44.0015 43.7007C45.8527 43.0865 47.3717 43.4645 48.0362 44.9763C48.9381 46.0629 49.4602 47.3385 49.8874 48.6613C50.1722 49.559 50.5519 50.3621 50.9317 51.2125C51.1215 51.4015 51.3114 51.5905 51.5013 51.7795C51.5487 51.7795 51.6437 51.8267 51.6911 51.8739C53.305 52.7243 54.3967 51.118 55.2986 49.37C55.4885 48.9921 55.6783 48.6141 55.8682 48.1889C55.9157 44.4566 55.8682 40.7716 55.8682 37.1338C55.7733 37.181 55.7258 37.181 55.6783 37.181Z" fill="black"/>
<path d="M80.2185 54.1416C78.7471 50.5983 77.2756 47.0078 75.7092 43.5117C75.187 42.2834 75.1871 41.3857 75.994 40.2991C78.4148 36.9448 78.3673 36.8975 75.3769 33.4487C75.4244 33.9212 75.3769 34.2991 75.5193 34.4881C77.1807 36.5196 76.7534 38.2676 74.8548 39.9212C73.763 40.9133 73.6206 41.9999 74.2852 43.4645C75.7092 46.6771 76.8484 49.9842 78.13 53.4802C75.0921 53.8109 72.3391 54.0944 69.3487 54.4724C69.3012 53.2913 69.2537 52.2046 69.2063 51.118C69.9657 50.9763 70.5353 50.8818 71.4847 50.6928C68.2095 50.2676 67.6398 51.4487 68.5892 56.0314C69.491 55.9842 70.4404 55.7479 71.3423 55.8897C71.9593 55.9842 72.5289 56.5038 73.0985 56.7873C72.5289 57.0235 72.0068 57.496 71.4372 57.496C68.067 57.5432 64.6969 57.5432 61.0894 57.5432C62.9406 62.8818 66.9753 64.9133 71.7694 65.6692C72.2441 70.2046 71.0574 71.4802 66.9278 71.2912C60.8046 71.0078 56.2004 68.1259 52.6404 62.929C52.5454 63.496 52.4505 63.7794 52.498 64.0629C52.7353 67.0865 54.9662 69.3542 58.6212 70.4409C59.0958 70.5826 59.7604 70.7716 60.235 71.055C60.8521 71.0078 61.4217 71.1023 62.0388 71.3385C62.2286 71.3857 62.371 71.5275 62.466 71.6692C62.6558 71.6692 62.8457 71.7164 63.0356 71.7164C63.4628 71.7637 63.89 72.0472 63.89 72.5668C63.89 72.992 63.5102 73.4645 63.0356 73.4172C62.8457 73.4172 62.6558 73.37 62.466 73.37C62.6558 73.5117 62.7982 73.7007 62.7982 74.0314C62.7982 74.2204 62.7982 74.4094 62.7982 74.5983C62.8932 74.4094 63.0356 74.1731 63.2254 73.9842C63.5577 73.6535 64.0324 73.4645 64.507 73.37C64.7444 72.9448 65.1716 72.6141 65.7412 72.4724C66.7854 72.1416 67.7823 72.2361 68.7316 72.4251C69.2537 72.2834 69.7284 72.0944 70.2505 71.8582L73.2409 66.5668C73.0511 65.622 72.9561 64.9605 72.8137 64.3464C69.2062 63.9684 66.1209 62.8346 63.8425 59.3857H74.7598C74.8548 58.0157 74.9022 56.929 74.9497 55.7479C76.7534 55.4172 78.4622 55.1338 80.171 54.8503C80.266 54.4724 80.266 54.2834 80.2185 54.1416Z" fill="black"/>
<path d="M70.2034 35.6693C70.6781 35.4804 71.1053 35.2914 71.5799 35.1024C67.4978 32.4095 60.9474 36.567 58.1943 40.3465C59.1911 39.9685 60.1879 39.5433 61.1847 39.1654C63.4631 36.6142 66.6434 35.3386 70.2034 35.6693Z" fill="black"/>
<path d="M55.6783 37.181C54.5391 37.4645 53.4474 37.6535 52.2607 37.8425C47.3242 38.7873 42.4351 39.7795 37.5461 40.4881C35.6474 40.7716 34.3658 40.9606 33.4639 41.244C32.8469 42.3306 32.1349 43.37 31.3754 44.3621C31.2805 45.0708 31.233 45.9684 31.1855 47.1023C30.6634 56.9763 34.2709 64.8188 42.8149 70.1574C44.3813 71.1495 44.9509 72.2834 44.9509 73.9842C44.9034 76.4881 44.9509 78.9921 44.9509 81.5432C45.6154 81.685 46.185 81.8267 46.8021 81.9684C46.8021 81.8267 46.8021 81.685 46.8021 81.5905C46.7071 80.8818 46.6122 80.3621 46.6122 79.8425C46.4223 72.7086 46.2799 65.5275 46.1375 58.3464C46.0901 55.2755 46.2325 52.2047 43.5743 49.9369C43.0047 49.4645 42.7199 48.6141 42.3877 47.9054C41.3434 45.5432 41.7706 44.4566 44.0015 43.7007C45.8527 43.0865 47.3717 43.4645 48.0362 44.9763C48.9381 46.0629 49.4602 47.3385 49.8874 48.6613C50.1722 49.559 50.5519 50.3621 50.9317 51.2125C51.1215 51.4015 51.3114 51.5905 51.5013 51.7795C51.5487 51.7795 51.6437 51.8267 51.6911 51.8739C53.305 52.7243 54.3967 51.118 55.2986 49.37C55.4885 48.9921 55.6783 48.6141 55.8682 48.1889C55.9157 44.4566 55.8682 40.7716 55.8682 37.1338C55.7733 37.181 55.7258 37.181 55.6783 37.181Z" fill="black"/>
<path d="M80.2185 54.1416C78.7471 50.5983 77.2756 47.0078 75.7092 43.5117C75.187 42.2834 75.1871 41.3857 75.994 40.2991C78.4148 36.9448 78.3673 36.8975 75.3769 33.4487C75.4244 33.9212 75.3769 34.2991 75.5193 34.4881C77.1807 36.5196 76.7534 38.2676 74.8548 39.9212C73.763 40.9133 73.6206 41.9999 74.2852 43.4645C75.7092 46.6771 76.8484 49.9842 78.13 53.4802C75.0921 53.8109 72.3391 54.0944 69.3487 54.4724C69.3012 53.2913 69.2537 52.2046 69.2063 51.118C69.9657 50.9763 70.5353 50.8818 71.4847 50.6928C68.2095 50.2676 67.6398 51.4487 68.5892 56.0314C69.491 55.9842 70.4404 55.7479 71.3423 55.8897C71.9593 55.9842 72.5289 56.5038 73.0985 56.7873C72.5289 57.0235 72.0068 57.496 71.4372 57.496C68.067 57.5432 64.6969 57.5432 61.0894 57.5432C62.9406 62.8818 66.9753 64.9133 71.7694 65.6692C72.2441 70.2046 71.0574 71.4802 66.9278 71.2912C60.8046 71.0078 56.2004 68.1259 52.6404 62.929C52.5454 63.496 52.4505 63.7794 52.498 64.0629C52.7353 67.0865 54.9662 69.3542 58.6212 70.4409C59.0958 70.5826 59.7604 70.7716 60.235 71.055C60.8521 71.0078 61.4217 71.1023 62.0388 71.3385C62.2286 71.3857 62.371 71.5275 62.466 71.6692C62.6558 71.6692 62.8457 71.7164 63.0356 71.7164C63.4628 71.7637 63.89 72.0472 63.89 72.5668C63.89 72.992 63.5102 73.4645 63.0356 73.4172C62.8457 73.4172 62.6558 73.37 62.466 73.37C62.6558 73.5117 62.7982 73.7007 62.7982 74.0314C62.7982 74.2204 62.7982 74.4094 62.7982 74.5983C62.8932 74.4094 63.0356 74.1731 63.2254 73.9842C63.5577 73.6535 64.0324 73.4645 64.507 73.37C64.7444 72.9448 65.1716 72.6141 65.7412 72.4724C66.7854 72.1416 67.7823 72.2361 68.7316 72.4251C69.2537 72.2834 69.7284 72.0944 70.2505 71.8582L73.2409 66.5668C73.0511 65.622 72.9561 64.9605 72.8137 64.3464C69.2062 63.9684 66.1209 62.8346 63.8425 59.3857H74.7598C74.8548 58.0157 74.9022 56.929 74.9497 55.7479C76.7534 55.4172 78.4622 55.1338 80.171 54.8503C80.266 54.4724 80.266 54.2834 80.2185 54.1416Z" fill="black"/>
<path d="M60.6623 43.8897C61.4693 44.6456 62.3236 45.118 63.2255 45.4487C63.273 45.4487 63.273 45.4487 63.3204 45.4487C65.2191 45.5432 68.0671 45.7322 69.8709 45.0235C72.4341 44.0314 72.3391 39.7322 69.3013 39.496C67.6399 39.3542 65.7887 39.7794 64.2223 40.2519C63.7477 40.3936 63.3205 40.5826 62.8933 40.7715C62.1813 41.3385 61.5642 41.9526 60.8997 42.6141C60.6623 42.8503 60.7098 43.37 60.6623 43.7952C60.6149 43.7952 60.6148 43.7952 60.5674 43.7952C60.6148 43.8424 60.6623 43.8424 60.6623 43.8897ZM65.6938 40.3463C65.9311 41.8582 66.121 42.992 66.4058 44.5511C64.4596 44.3149 62.6085 44.0786 60.8047 43.8897C62.3237 42.7086 63.9375 41.5747 65.6938 40.3463Z" fill="black"/>
<path d="M70.2034 35.6693C70.6781 35.4804 71.1053 35.2914 71.5799 35.1024C67.4978 32.4095 60.9474 36.567 58.1943 40.3465C59.1911 39.9685 60.1879 39.5433 61.1847 39.1654C63.4631 36.6142 66.6434 35.3386 70.2034 35.6693Z" fill="black"/>
<path d="M60.6623 43.8897C62.2762 42.7559 63.89 41.5748 65.6938 40.3464C65.9311 41.8582 66.121 42.9921 66.4058 44.5512C64.4122 44.3149 62.5135 44.0787 60.6149 43.8425C60.5674 43.7953 60.6623 43.8897 60.6623 43.8897Z" fill="white"/>
<path d="M72.6716 67.0867C72.5767 68.1261 72.4817 69.2599 71.7697 70.0631C71.2476 70.6773 70.4407 70.8662 69.8711 71.4804C69.6812 71.6694 69.9185 72.0001 70.1559 71.8584C71.2476 71.1025 71.9121 70.1576 72.5767 69.071C72.4343 69.0237 72.2919 68.9765 72.1495 68.9292C72.0545 69.1655 71.9596 69.4489 71.8172 69.6851C71.6748 69.9214 72.0071 70.1576 72.1969 69.9686C72.7191 69.3544 73.0039 68.7403 73.1937 67.9844C73.0513 67.9844 72.9089 67.9371 72.7191 67.9371C72.7191 68.4568 72.1495 69.071 71.8647 69.4962C72.0071 69.5434 72.1495 69.5906 72.2919 69.6379C72.3393 69.0237 72.4817 68.5513 72.814 68.0316C72.6716 67.9844 72.5292 67.8899 72.3868 67.8426C72.2444 68.4568 72.102 69.071 71.7697 69.6379C71.9121 69.6851 72.0545 69.7796 72.1969 69.8269C72.2919 69.4017 72.4343 69.0237 72.5292 68.5985C72.5767 68.4568 72.4343 68.2206 72.2444 68.3151C72.0545 68.3623 72.0545 68.4096 71.9121 68.5513C71.8647 68.5985 71.8647 68.7403 71.8647 68.8347C71.7223 69.3544 71.6748 69.6851 71.3425 70.1576C71.4849 70.2521 71.6273 70.2993 71.7697 70.3938C71.9596 70.0158 72.102 69.5906 72.1969 69.1655C72.0545 69.1655 71.9121 69.1182 71.7223 69.1182C71.6748 69.3072 71.6273 69.4962 71.5799 69.6379C71.7223 69.6851 71.8647 69.7324 72.0071 69.7796C72.0545 69.4017 72.1495 69.1182 72.2919 68.7875C72.3868 68.5513 71.9596 68.3623 71.8647 68.5985C71.6273 69.1655 71.3425 69.6851 71.1052 70.2521C70.9628 70.5355 71.39 70.7718 71.5324 70.4883C71.6273 70.3466 71.6748 70.2048 71.7697 70.0631C71.6273 70.0159 71.4849 69.9214 71.3425 69.8741C71.2001 70.441 70.9153 70.8662 70.3932 71.2442C70.4881 71.3859 70.5831 71.4804 70.678 71.6222C71.2001 71.008 71.7223 70.3938 72.2444 69.7796C72.102 69.7324 71.9596 69.6851 71.8647 69.5907C71.8647 70.2993 71.4375 70.819 70.7255 71.008C70.8204 71.1025 70.9153 71.2442 71.0103 71.3387C71.1052 71.197 71.2001 71.1025 71.2951 70.9607C71.1527 70.8662 71.0577 70.7718 70.9153 70.6773C70.7729 70.819 70.6305 70.9135 70.4407 71.0552C70.4881 71.1969 70.5831 71.3387 70.6305 71.4804C70.9153 71.2914 71.2476 71.1025 71.5799 70.9135C71.4849 70.819 71.3425 70.7245 71.2476 70.63C71.0103 70.8662 70.7729 71.1497 70.5356 71.3859C70.6305 71.4804 70.7255 71.6221 70.8204 71.7166C71.0103 71.3859 71.2001 71.1025 71.4849 70.819C71.3425 70.7245 71.2476 70.63 71.1052 70.5355C70.5831 71.4804 69.6812 71.9529 68.5895 71.8584C68.6369 72.0001 68.6844 72.1418 68.7319 72.2836C69.5388 71.8584 70.3932 71.5277 71.1052 70.9135C71.7697 70.2521 72.2444 69.4489 72.7191 68.6458C72.8615 68.3623 72.4817 68.1261 72.2919 68.4096C71.8647 69.1655 71.39 69.9686 70.7729 70.5828C70.1084 71.1969 69.3015 71.4804 68.4945 71.9056C68.2572 72.0473 68.3996 72.3308 68.6369 72.3308C69.8711 72.4725 70.9628 71.8584 71.5324 70.7718C71.6748 70.5355 71.3425 70.2993 71.1527 70.4883C70.8679 70.819 70.6305 71.1025 70.4407 71.4804C70.3457 71.6694 70.4881 71.9056 70.7255 71.8111C71.2951 71.6221 71.6273 71.2914 71.7697 70.7245C71.8172 70.5355 71.5799 70.3466 71.4375 70.441C71.1052 70.63 70.8204 70.819 70.4881 71.008C70.2983 71.1497 70.3932 71.5277 70.678 71.4332C71.0103 71.2914 71.2001 71.197 71.4375 70.8662C71.5799 70.63 71.2476 70.3938 71.0577 70.5828C70.8204 70.819 70.8679 70.7245 70.7255 71.0552C70.6305 71.2442 70.7729 71.4332 71.0103 71.3859C71.9121 71.1497 72.4817 70.441 72.4817 69.4962C72.4817 69.3072 72.1969 69.1655 72.102 69.3072C71.5799 69.9214 71.0577 70.5355 70.5356 71.1497C70.3932 71.3387 70.5831 71.6694 70.8204 71.5277C71.4375 71.1025 71.7697 70.5828 72.0071 69.8741C72.0545 69.6379 71.7223 69.4489 71.5799 69.6851C71.4849 69.8269 71.4375 69.9686 71.3425 70.1103C71.4849 70.2048 71.6273 70.2521 71.7697 70.3466C72.0071 69.7796 72.2919 69.2599 72.5292 68.693C72.3868 68.6458 72.2444 68.5513 72.102 68.504C71.9596 68.882 71.8647 69.2599 71.8172 69.6379C71.7697 69.8741 72.1495 69.9214 72.2444 69.7796C72.4343 69.4962 72.4817 69.3072 72.4817 69.0237C72.4817 68.7875 72.0545 68.693 72.0071 68.9765C71.9121 69.4017 71.8172 69.6851 71.6273 70.1103C71.4849 70.3938 71.8647 70.5828 72.0545 70.3466C72.2444 70.1103 72.3393 69.8741 72.4817 69.6379C72.4817 69.5906 72.6716 68.7875 72.6716 68.7875C72.5767 68.693 72.4817 68.5985 72.3868 68.504C72.2919 68.9292 72.1495 69.3072 72.0545 69.7324C71.9596 69.9686 72.3393 70.1576 72.4817 69.9214C72.814 69.3072 73.0039 68.693 73.1463 68.0316C73.1937 67.7954 72.8615 67.6064 72.7191 67.8426C72.3393 68.4096 72.1969 69.0237 72.1495 69.6851C72.1495 69.9214 72.4817 69.9686 72.5767 69.8269C72.9089 69.2599 73.4785 68.693 73.4785 68.0316C73.4785 67.7954 73.0513 67.7009 73.0039 67.9844C72.8615 68.6458 72.5767 69.2127 72.1495 69.7796C72.2919 69.8741 72.3868 69.9686 72.5292 70.0631C72.7665 69.7324 72.8615 69.4489 72.9089 69.071C72.9564 68.8347 72.5767 68.7875 72.4817 68.9292C71.8172 69.9214 71.2001 70.8662 70.2033 71.5277C70.2983 71.6694 70.3932 71.7639 70.4881 71.9056C71.1527 71.1497 72.1495 70.9607 72.6716 70.1103C73.1937 69.2599 73.2887 68.2206 73.3836 67.2285C73.1937 66.8033 72.7191 66.8033 72.6716 67.0867Z" fill="black"/>
<path d="M72.5766 66.992C72.4817 67.3227 72.4817 67.6062 72.5766 67.9369C72.719 67.8896 72.8614 67.7951 73.0038 67.7479C72.9089 67.6062 73.0038 67.3699 73.0513 67.2282C73.0513 67.0865 73.0513 66.9447 73.0038 66.803C72.9089 66.4723 72.719 66.1416 72.8139 65.8109C72.9089 65.5274 72.4342 65.3857 72.3393 65.6692C72.1969 66.0944 72.3868 66.4251 72.4817 66.803C72.5766 67.181 72.3393 67.6062 72.5292 67.9369C72.6716 68.1259 73.0513 68.0314 72.9563 67.7479C72.8614 67.5117 72.9089 67.2755 72.9563 67.0392C73.0987 66.8503 72.6716 66.7085 72.5766 66.992Z" fill="black"/>
<path d="M72.9086 66.8032C72.9086 67.4646 72.7662 68.0788 72.6238 68.693C72.5289 68.9764 73.0036 69.1182 73.0985 68.8347C73.2884 68.1733 73.3833 67.5119 73.4308 66.8505C73.3833 66.5198 72.9561 66.5198 72.9086 66.8032Z" fill="black"/>
<path d="M68.3522 72.0945C67.5453 72.0472 66.7383 72.0472 65.9789 71.9055C65.3143 71.811 64.7447 71.4803 64.1277 71.2913C62.8461 70.9134 61.517 71.0551 60.2354 70.5827C59.9506 70.4882 59.8557 70.9134 60.093 71.0551C62.6562 72.0945 65.4093 72.3307 68.1149 72.5197C68.3997 72.5197 68.3997 72.0945 68.1149 72.0472C65.4093 71.8583 62.7511 71.622 60.1879 70.5827C60.1405 70.7244 60.093 70.8661 60.0455 71.0551C61.4221 71.5748 62.8935 71.4331 64.3175 71.9055C65.6941 72.3779 66.8807 72.5197 68.3047 72.5669C68.6845 72.5669 68.6845 72.0945 68.3522 72.0945Z" fill="black"/>
<path d="M35.9323 17.5276C36.9291 22.1576 38.5905 25.7481 40.774 29.0552C41.5334 30.2363 42.3878 31.3229 43.1947 32.4568C43.7643 33.2127 44.1441 33.2127 44.9035 32.6457C47.799 30.4725 50.7419 28.3938 53.9222 26.6457C58.0518 24.378 62.3238 22.5355 67.023 21.9686C67.8774 21.8741 68.2097 21.2127 67.8299 20.5513C65.6465 16.8662 63.0833 13.4646 59.7606 10.6772C57.7195 8.97645 55.5361 7.65362 52.9254 7.08669C51.6438 6.80322 50.3622 6.70874 49.0806 6.9922C44.4289 7.88984 40.2043 9.63787 36.3595 12.378C35.8374 12.756 35.6475 13.1812 35.695 13.7954C35.8374 15.2599 35.9323 16.7717 35.9323 17.5276Z" fill="black"/>
<path d="M67.3553 23.6221C62.9409 24.2835 58.8587 25.8426 55.0139 28.0631C51.7862 29.9056 48.7958 32.0788 45.8529 34.2993C45.5206 34.5355 45.1883 34.8662 45.3782 35.2914C45.5206 35.5749 45.8054 35.9056 46.0902 35.9528C47.9414 36.3308 49.7451 36.9922 51.6438 36.9922C54.7766 36.945 57.9569 36.945 60.9473 35.8111C63.7478 34.7717 66.1686 33.0709 68.3521 31.0867C69.7761 29.8111 71.0577 28.3938 72.5291 27.1182C73.5734 26.2206 74.8075 25.5119 75.9942 24.756C76.5163 24.4253 77.0385 24.567 77.2758 24.9922C77.5131 25.4174 77.3707 25.8898 76.8486 26.2206C75.8993 26.8347 74.9499 27.4017 74.0481 28.0631C73.3361 28.5828 73.4785 29.4332 74.2854 29.6694C75.8993 30.1418 77.5131 30.6143 79.1745 30.945C81.3579 31.3702 83.2566 29.9528 83.6838 27.6851C84.2059 25.0395 82.5446 23.008 79.6966 22.819C76.5163 22.5828 73.3835 22.9135 70.2507 23.2442C69.2539 23.3387 68.3046 23.5276 67.3553 23.6221Z" fill="black"/>
<path d="M29.0498 32.2205C29.6669 34.2047 30.2365 36.189 30.9485 38.126C31.5655 39.9213 32.9421 40.0158 34.7458 38.6929C36.5495 37.3228 38.5906 36.2362 40.7741 35.4331C42.1981 34.9134 42.5303 34.3937 41.8183 33.4961C39.9671 31.1339 38.3058 28.6299 36.9293 25.8898C35.5053 23.0079 34.461 19.9843 34.0813 16.7717C34.0338 16.252 33.8439 15.7795 33.2743 15.7795C32.9895 15.7795 32.5623 16.0158 32.325 16.252C30.4263 18.6142 29.2871 21.3071 28.8125 24.2835C28.4802 26.9291 28.6701 29.5748 29.0498 32.2205Z" fill="black"/>
<path d="M34.4606 41.3859C33.7961 41.2441 33.1315 41.2441 32.5145 41.5748C32.2297 41.7638 31.9449 42 31.8025 42.3307C31.6126 42.7087 31.5651 43.0866 31.5651 43.4646C31.5651 43.3229 31.6126 43.1811 31.6126 43.0394C31.5651 43.3229 31.4702 43.5118 31.4702 43.8426C31.4702 44.3622 31.6601 44.7874 32.0398 45.1654C32.2771 44.2678 32.5145 43.3229 32.7518 42.4252C32.4195 42.5197 32.1347 42.6615 31.8974 42.8977C31.6601 43.1811 31.5177 43.4174 31.3753 43.7481C31.1854 44.2205 31.3753 44.7874 31.6601 45.1654C31.9449 45.5433 32.467 45.8268 32.9417 45.8268C33.6062 45.7796 34.1758 45.4961 34.5555 44.8819C34.9827 44.126 34.7454 43.0394 33.9859 42.6142C33.179 42.189 32.2297 42.4252 31.7075 43.1811C31.7075 43.1811 31.7075 43.2284 31.6601 43.2284C31.755 43.1339 31.8499 42.9922 31.8974 42.8977L31.8499 42.9449C32.0873 42.8032 32.3246 42.6615 32.5619 42.5197H32.5145C32.6569 42.5197 32.7993 42.4725 32.9417 42.4725H32.8942C33.4163 43.1811 33.9385 43.8426 34.4606 44.5512V44.504C34.4131 44.6457 34.3657 44.7874 34.2707 44.8819L34.3182 44.8347C34.2233 44.9292 34.1283 45.0709 34.0809 45.1654L34.1283 45.1181C34.0334 45.2126 33.891 45.3071 33.7961 45.3544C33.7961 45.3544 33.8435 45.3544 33.8435 45.3071C33.7011 45.3544 33.5587 45.4016 33.4638 45.4961H33.5113C34.6979 45.1181 35.0777 43.6536 34.2233 42.7559L34.1758 42.7087C34.3182 42.9449 34.4606 43.1811 34.603 43.4174V43.3701C34.603 43.5118 34.6505 43.6536 34.6505 43.7953V43.7481C34.6505 43.8898 34.603 44.0315 34.603 44.1733C34.603 44.0788 34.6505 43.937 34.6979 43.8426C34.7454 43.6063 34.7454 43.3701 34.7454 43.1339C34.7454 43.2756 34.6979 43.4174 34.6979 43.5591V43.5118C34.6505 43.6536 34.603 43.7953 34.5081 43.8898C34.5081 43.8898 34.5081 43.8426 34.5555 43.8426C34.4606 43.937 34.3657 44.0788 34.3182 44.1733C34.3657 44.126 34.3657 44.126 34.4131 44.0788C34.3182 44.1733 34.1758 44.2678 34.0809 44.315C34.0809 44.315 34.1283 44.315 34.1283 44.2677C33.9859 44.315 33.8435 44.3622 33.7486 44.4567C33.7961 44.4567 33.8435 44.4095 33.891 44.4095C33.7486 44.4095 33.6062 44.4567 33.4638 44.4567C33.5587 44.4567 33.6537 44.4567 33.7486 44.4567C33.6062 44.4567 33.4638 44.4095 33.3214 44.4095C33.3689 44.4095 33.4638 44.4095 33.5113 44.4567C33.9385 44.5512 34.3657 44.504 34.7929 44.2677C35.1251 44.0788 35.4574 43.7008 35.5523 43.2756C35.8371 42.567 35.3625 41.5748 34.4606 41.3859Z" fill="black"/>
</g>
<defs>
<clipPath id="clip0_922_1052">
<rect width="89" height="90" fill="white"/>
</clipPath>
</defs>
</svg>
